<svg width="158" height="46" viewBox="0 0 158 46" fill="none" xmlns="http://www.w3.org/2000/svg">
<path d="M0 41H41V17.3221L35.3809 8.73514L32.9307 10.8016L25.7679 0L18.5725 10.8592L13.9988 3.95181L12.0305 6.9239L11.6793 6.63574C10.8135 5.91124 9.71096 5.51606 8.5757 5.51606C5.87231 5.51606 3.6753 7.73072 3.6753 10.4558C3.6753 12.2753 4.67171 13.9384 6.26434 14.811L6.65637 15.0251L5.52112 16.7458H0V41ZM25.7679 2.96386L32.5795 13.2468L35.0215 11.1886L39.3665 17.8161V26.9629L38.656 26.1972C37.0062 24.4106 34.6785 23.3815 32.261 23.3815H21.7006C18.6705 23.3815 16.1468 20.994 15.9426 17.9478L15.9345 17.8078L25.7679 2.96386ZM5.30876 10.4558C5.30876 8.63635 6.77072 7.16265 8.5757 7.16265C9.43327 7.16265 10.2418 7.49197 10.8544 8.09297L11.0994 8.33173L7.59562 13.6173L7.28526 13.4773C6.08466 12.9586 5.30876 11.7731 5.30876 10.4558ZM1.63347 18.3924H6.39502L13.9988 6.91566L17.5924 12.3412L14.0886 17.6349C12.447 20.1131 12.3 23.151 13.6966 25.7773C15.0851 28.4036 17.6823 29.9679 20.6307 29.9679H28.749C29.6474 29.9679 30.3825 30.7088 30.3825 31.6145C30.3825 32.5201 29.6474 33.261 28.749 33.261H9.24542L7.36693 34.4137H1.63347V18.3924ZM1.63347 36.0602H7.8243L9.70279 34.9076H28.749C30.554 34.9076 32.0159 33.4339 32.0159 31.6145C32.0159 29.795 30.554 28.3213 28.749 28.3213H20.6307C18.2948 28.3213 16.2367 27.0781 15.1341 25.0034C14.5133 23.8343 14.2683 22.5418 14.4317 21.2657L14.5869 19.9978L15.1912 21.1175C16.4898 23.5297 18.989 25.0281 21.7006 25.0281H32.261C36.1813 25.0281 39.3665 28.239 39.3665 32.1908V39.3534H1.63347V36.0602Z" fill="#3D6D8F"/>
<path d="M56.0764 34.0344L58.5825 40.6144H59.7392L56.0764 31.554L52.4137 40.6144H53.5703L56.0764 34.0344ZM59.6749 41V42.4137H60.6388V39.9719H51.5141V42.4137H52.4779V41H59.6749ZM62.6426 39.265C62.6426 39.0251 62.6983 38.8195 62.8097 38.6481C62.9211 38.4768 63.0882 38.344 63.3109 38.2497C63.5422 38.1555 63.8293 38.1084 64.172 38.1084C64.549 38.1084 64.8874 38.1598 65.1873 38.2626C65.4871 38.3568 65.7827 38.5068 66.074 38.7124V38.1084C66.0141 38.0313 65.9027 37.9327 65.7399 37.8128C65.5771 37.6843 65.3586 37.5729 65.0845 37.4786C64.8189 37.3758 64.4976 37.3244 64.1206 37.3244C63.6065 37.3244 63.161 37.4058 62.784 37.5686C62.407 37.7228 62.1157 37.9456 61.9101 38.2369C61.7045 38.5282 61.6016 38.8838 61.6016 39.3036C61.6016 39.7063 61.6916 40.0447 61.8715 40.3189C62.06 40.5845 62.3085 40.7858 62.6169 40.9229C62.9254 41.06 63.2638 41.1285 63.6322 41.1285C64.0435 41.1285 64.4162 41.06 64.7503 40.9229C65.0845 40.7772 65.3501 40.5716 65.5471 40.306C65.7527 40.0318 65.8556 39.7063 65.8556 39.3293L65.6499 38.6867C65.6499 39.0551 65.5728 39.3507 65.4186 39.5735C65.2729 39.7962 65.0673 39.959 64.8017 40.0618C64.5361 40.1646 64.232 40.216 63.8892 40.216C63.6579 40.216 63.448 40.1818 63.2595 40.1132C63.071 40.0361 62.9211 39.929 62.8097 39.7919C62.6983 39.6463 62.6426 39.4706 62.6426 39.265ZM62.6426 36.4762C62.7369 36.4077 62.8654 36.3263 63.0282 36.232C63.1995 36.1292 63.4009 36.0435 63.6322 35.975C63.8635 35.8979 64.1206 35.8593 64.4033 35.8593C64.7289 35.8593 65.0159 35.9364 65.2644 36.0907C65.5214 36.2363 65.6499 36.4591 65.6499 36.7589V41H66.6781V36.7589C66.6781 36.3734 66.5795 36.0478 66.3825 35.7822C66.194 35.5166 65.9284 35.3153 65.5857 35.1782C65.2515 35.0325 64.8574 34.9597 64.4033 34.9597C63.8721 34.9597 63.418 35.0411 63.041 35.2039C62.664 35.3667 62.3642 35.5295 62.1414 35.6923L62.6426 36.4762ZM71.5662 35.0882L70.1525 37.1445L68.7389 35.0882H67.5822L69.5999 37.9541L67.4537 41H68.6103L70.1525 38.7638L71.6947 41H72.8514L70.7052 37.9541L72.7229 35.0882H71.5662ZM73.1119 38.0441C73.1119 38.6353 73.2447 39.1665 73.5103 39.6377C73.7845 40.1004 74.1529 40.4645 74.6156 40.7301C75.0783 40.9957 75.5966 41.1285 76.1706 41.1285C76.7533 41.1285 77.2716 40.9957 77.7257 40.7301C78.1884 40.4645 78.5525 40.1004 78.8181 39.6377C79.0923 39.1665 79.2293 38.6353 79.2293 38.0441C79.2293 37.4444 79.0923 36.9132 78.8181 36.4505C78.5525 35.9878 78.1884 35.6237 77.7257 35.3581C77.2716 35.0925 76.7533 34.9597 76.1706 34.9597C75.5966 34.9597 75.0783 35.0925 74.6156 35.3581C74.1529 35.6237 73.7845 35.9878 73.5103 36.4505C73.2447 36.9132 73.1119 37.4444 73.1119 38.0441ZM74.1529 38.0441C74.1529 37.6329 74.2386 37.2687 74.41 36.9517C74.5899 36.6261 74.8298 36.3734 75.1297 36.1935C75.4381 36.0135 75.7851 35.9236 76.1706 35.9236C76.5562 35.9236 76.8989 36.0135 77.1988 36.1935C77.5072 36.3734 77.7471 36.6261 77.9185 36.9517C78.0984 37.2687 78.1884 37.6329 78.1884 38.0441C78.1884 38.4554 78.0984 38.8195 77.9185 39.1365C77.7471 39.4535 77.5072 39.7063 77.1988 39.8948C76.8989 40.0747 76.5562 40.1646 76.1706 40.1646C75.7851 40.1646 75.4381 40.0747 75.1297 39.8948C74.8298 39.7063 74.5899 39.4535 74.41 39.1365C74.2386 38.8195 74.1529 38.4554 74.1529 38.0441ZM81.2458 37.9156V38.4554H82.955C83.1521 38.4554 83.3192 38.4768 83.4562 38.5196C83.6019 38.5539 83.7176 38.6096 83.8032 38.6867C83.8975 38.7638 83.966 38.8495 84.0089 38.9437C84.0603 39.038 84.086 39.1451 84.086 39.265C84.086 39.4964 83.9917 39.6934 83.8032 39.8562C83.6233 40.019 83.3406 40.1004 82.955 40.1004H81.2458V41H83.2121C83.8889 41 84.373 40.8458 84.6643 40.5373C84.9642 40.2203 85.1141 39.8391 85.1141 39.3935C85.1141 39.008 85.0199 38.7081 84.8314 38.4939C84.6429 38.2797 84.3859 38.1298 84.0603 38.0441C83.7347 37.9584 83.3663 37.9156 82.955 37.9156H81.2458ZM81.2458 38.1726H82.8265C83.1949 38.1726 83.5291 38.1212 83.8289 38.0184C84.1374 37.907 84.3859 37.7442 84.5743 37.53C84.7628 37.3073 84.8571 37.0288 84.8571 36.6947C84.8571 36.3091 84.7628 36.0007 84.5743 35.7694C84.3859 35.5295 84.1374 35.3581 83.8289 35.2553C83.5291 35.1439 83.1949 35.0882 82.8265 35.0882H81.2458V35.9878H82.8265C83.135 35.9878 83.3791 36.0607 83.5591 36.2063C83.739 36.3434 83.8289 36.5276 83.8289 36.7589C83.8289 36.8703 83.8032 36.9774 83.7518 37.0802C83.709 37.1745 83.6447 37.2602 83.5591 37.3373C83.4734 37.4144 83.3663 37.4744 83.2378 37.5172C83.1178 37.5515 82.9807 37.5686 82.8265 37.5686H81.2458V38.1726ZM80.6417 35.0882V41H81.6699V35.0882H80.6417ZM86.9278 38.0441C86.9278 37.6329 87.0135 37.2687 87.1848 36.9517C87.3648 36.6261 87.6047 36.3734 87.9045 36.1935C88.213 36.0135 88.56 35.9236 88.9455 35.9236C89.2625 35.9236 89.5581 35.975 89.8323 36.0778C90.115 36.172 90.3592 36.3006 90.5648 36.4634C90.7705 36.6261 90.9161 36.8061 91.0018 37.0031V35.718C90.7962 35.4781 90.5006 35.2938 90.115 35.1653C89.738 35.0282 89.3482 34.9597 88.9455 34.9597C88.3715 34.9597 87.8531 35.0925 87.3905 35.3581C86.9278 35.6237 86.5594 35.9878 86.2852 36.4505C86.0196 36.9132 85.8868 37.4444 85.8868 38.0441C85.8868 38.6353 86.0196 39.1665 86.2852 39.6377C86.5594 40.1004 86.9278 40.4645 87.3905 40.7301C87.8531 40.9957 88.3715 41.1285 88.9455 41.1285C89.3482 41.1285 89.738 41.0643 90.115 40.9357C90.5006 40.7987 90.7962 40.6102 91.0018 40.3703V39.0851C90.9161 39.2736 90.7705 39.4535 90.5648 39.6249C90.3592 39.7877 90.115 39.9205 89.8323 40.0233C89.5581 40.1175 89.2625 40.1646 88.9455 40.1646C88.56 40.1646 88.213 40.0747 87.9045 39.8948C87.6047 39.7063 87.3648 39.4535 87.1848 39.1365C87.0135 38.8195 86.9278 38.4554 86.9278 38.0441ZM92.5381 35.0882V41H93.5662V35.0882H92.5381ZM95.751 35.0882L93.1807 37.53L96.008 41H97.2932L94.4658 37.53L97.0362 35.0882H95.751ZM98.7253 39.265C98.7253 39.0251 98.781 38.8195 98.8923 38.6481C99.0037 38.4768 99.1708 38.344 99.3936 38.2497C99.6249 38.1555 99.9119 38.1084 100.255 38.1084C100.632 38.1084 100.97 38.1598 101.27 38.2626C101.57 38.3568 101.865 38.5068 102.157 38.7124V38.1084C102.097 38.0313 101.985 37.9327 101.823 37.8128C101.66 37.6843 101.441 37.5729 101.167 37.4786C100.901 37.3758 100.58 37.3244 100.203 37.3244C99.6891 37.3244 99.2436 37.4058 98.8666 37.5686C98.4897 37.7228 98.1983 37.9456 97.9927 38.2369C97.7871 38.5282 97.6843 38.8838 97.6843 39.3036C97.6843 39.7063 97.7742 40.0447 97.9542 40.3189C98.1427 40.5845 98.3911 40.7858 98.6996 40.9229C99.008 41.06 99.3464 41.1285 99.7148 41.1285C100.126 41.1285 100.499 41.06 100.833 40.9229C101.167 40.7772 101.433 40.5716 101.63 40.306C101.835 40.0318 101.938 39.7063 101.938 39.3293L101.733 38.6867C101.733 39.0551 101.655 39.3507 101.501 39.5735C101.356 39.7962 101.15 39.959 100.884 40.0618C100.619 40.1646 100.315 40.216 99.9719 40.216C99.7406 40.216 99.5306 40.1818 99.3421 40.1132C99.1537 40.0361 99.0037 39.929 98.8923 39.7919C98.781 39.6463 98.7253 39.4706 98.7253 39.265ZM98.7253 36.4762C98.8195 36.4077 98.948 36.3263 99.1108 36.232C99.2822 36.1292 99.4835 36.0435 99.7148 35.975C99.9462 35.8979 100.203 35.8593 100.486 35.8593C100.812 35.8593 101.099 35.9364 101.347 36.0907C101.604 36.2363 101.733 36.4591 101.733 36.7589V41H102.761V36.7589C102.761 36.3734 102.662 36.0478 102.465 35.7822C102.277 35.5166 102.011 35.3153 101.668 35.1782C101.334 35.0325 100.94 34.9597 100.486 34.9597C99.9547 34.9597 99.5007 35.0411 99.1237 35.2039C98.7467 35.3667 98.4468 35.5295 98.2241 35.6923L98.7253 36.4762ZM105.348 41L107.533 37.9156H106.402L104.217 41H105.348ZM109.101 41V35.0882H108.073V41H109.101ZM108.497 37.7357H106.659C106.411 37.7357 106.201 37.7057 106.03 37.6457C105.867 37.5772 105.743 37.4786 105.657 37.3501C105.571 37.2216 105.528 37.0588 105.528 36.8618C105.528 36.6647 105.571 36.5019 105.657 36.3734C105.743 36.2449 105.867 36.1506 106.03 36.0907C106.201 36.0221 106.411 35.9878 106.659 35.9878H108.497V35.0882H106.659C106.257 35.0882 105.888 35.1482 105.554 35.2681C105.228 35.3881 104.971 35.5766 104.783 35.8336C104.594 36.0907 104.5 36.4334 104.5 36.8618C104.5 37.2816 104.594 37.6243 104.783 37.8899C104.971 38.1469 105.228 38.3354 105.554 38.4554C105.888 38.5753 106.257 38.6353 106.659 38.6353H108.497V37.7357Z" fill="black"/>
<path d="M53.7483 14.5973H56.8429C57.4921 14.5973 58.062 14.7055 58.5525 14.9219C59.0575 15.1239 59.447 15.4341 59.7211 15.8525C60.0096 16.2709 60.1539 16.7902 60.1539 17.4106C60.1539 18.0309 60.0096 18.5503 59.7211 18.9687C59.447 19.3871 59.0575 19.7045 58.5525 19.9209C58.062 20.1229 57.4921 20.2238 56.8429 20.2238H53.7483V21.9551H56.8429C57.824 21.9551 58.6968 21.7747 59.4614 21.4141C60.2405 21.039 60.8536 20.5124 61.3009 19.8343C61.7625 19.1418 61.9933 18.3339 61.9933 17.4106C61.9933 16.4728 61.7625 15.6649 61.3009 14.9869C60.8536 14.3088 60.2405 13.7894 59.4614 13.4287C58.6968 13.0536 57.824 12.8661 56.8429 12.8661H53.7483V14.5973ZM52.7312 6.80676V21.9551H54.5707V8.538H60.8464V6.80676H52.7312ZM64.7168 17.4106H73.2215C73.236 17.324 73.2432 17.2375 73.2432 17.1509C73.2432 17.0643 73.2432 16.9778 73.2432 16.8912C73.2432 15.838 73.0484 14.9364 72.6589 14.1862C72.2693 13.4215 71.7211 12.83 71.0142 12.4116C70.3073 11.9933 69.4849 11.7841 68.5472 11.7841C67.696 11.7841 66.9242 11.9572 66.2317 12.3034C65.5536 12.6497 64.9982 13.133 64.5653 13.7533C64.1325 14.3737 63.844 15.0951 63.6997 15.9174C63.6709 16.0905 63.6492 16.2636 63.6348 16.4368C63.6204 16.6099 63.6132 16.7902 63.6132 16.9778C63.6132 17.9732 63.8151 18.8677 64.2191 19.6612C64.6375 20.4402 65.2001 21.0534 65.9071 21.5006C66.6284 21.9479 67.4363 22.1715 68.3308 22.1715C69.1964 22.1715 69.9178 22.0705 70.4948 21.8685C71.0719 21.6521 71.5624 21.3564 71.9664 20.9813C72.3703 20.5917 72.7382 20.1445 73.07 19.6395L71.6634 18.7523C71.447 19.113 71.1873 19.4304 70.8844 19.7045C70.5814 19.9642 70.2351 20.1733 69.8456 20.332C69.4705 20.4763 69.0377 20.5484 68.5472 20.5484C67.898 20.5484 67.3353 20.4114 66.8592 20.1373C66.3831 19.8632 66.0153 19.4592 65.7556 18.9254C65.4959 18.3916 65.366 17.7424 65.366 16.9778L65.4093 16.3286C65.4093 15.7082 65.5464 15.1744 65.8205 14.7272C66.109 14.2655 66.4913 13.912 66.9674 13.6668C67.4435 13.4215 67.9701 13.2989 68.5472 13.2989C69.1243 13.2989 69.6076 13.4143 69.9971 13.6451C70.4011 13.8615 70.7112 14.1717 70.9276 14.5757C71.1585 14.9652 71.3027 15.4197 71.3605 15.939H64.7168V17.4106ZM84.3371 12.0005H75.7891V18.4926C75.7891 19.1995 75.6304 19.69 75.313 19.9642C75.0101 20.2383 74.6422 20.3753 74.2094 20.3753V21.9551C74.9596 21.9551 75.5799 21.8324 76.0705 21.5872C76.561 21.3275 76.9217 20.9452 77.1525 20.4402C77.3977 19.9209 77.5204 19.2717 77.5204 18.4926V13.6235H82.6059V21.9551H84.3371V12.0005ZM88.4622 19.0336C88.4622 18.6297 88.5559 18.2834 88.7435 17.9949C88.931 17.7063 89.2124 17.4827 89.5875 17.324C89.977 17.1653 90.4603 17.086 91.0374 17.086C91.6722 17.086 92.242 17.1725 92.747 17.3457C93.2519 17.5044 93.7496 17.7568 94.2402 18.1031V17.086C94.1392 16.9561 93.9516 16.7902 93.6775 16.5882C93.4034 16.3718 93.0355 16.1843 92.5738 16.0256C92.1266 15.8525 91.5856 15.7659 90.9508 15.7659C90.0852 15.7659 89.335 15.903 88.7002 16.1771C88.0654 16.4368 87.5749 16.8119 87.2286 17.3024C86.8824 17.7929 86.7093 18.3916 86.7093 19.0985C86.7093 19.7766 86.8608 20.3465 87.1637 20.8081C87.4811 21.2554 87.8995 21.5944 88.4189 21.8252C88.9382 22.0561 89.5081 22.1715 90.1285 22.1715C90.821 22.1715 91.4485 22.0561 92.0112 21.8252C92.5738 21.58 93.0211 21.2337 93.3529 20.7865C93.6991 20.3248 93.8723 19.7766 93.8723 19.1418L93.526 18.0598C93.526 18.6802 93.3962 19.1779 93.1365 19.553C92.8912 19.9281 92.545 20.2022 92.0977 20.3753C91.6505 20.5484 91.1384 20.635 90.5613 20.635C90.1717 20.635 89.8183 20.5773 89.5009 20.4619C89.1835 20.332 88.931 20.1517 88.7435 19.9209C88.5559 19.6756 88.4622 19.3799 88.4622 19.0336ZM88.4622 14.3376C88.6208 14.2222 88.8373 14.0852 89.1114 13.9265C89.3999 13.7533 89.7389 13.6091 90.1285 13.4937C90.518 13.3638 90.9508 13.2989 91.4269 13.2989C91.9751 13.2989 92.4584 13.4287 92.8768 13.6884C93.3096 13.9337 93.526 14.3088 93.526 14.8137V21.9551H95.2573V14.8137C95.2573 14.1645 95.0913 13.6163 94.7595 13.1691C94.4421 12.7218 93.9949 12.3828 93.4178 12.152C92.8552 11.9067 92.1915 11.7841 91.4269 11.7841C90.5324 11.7841 89.7678 11.9211 89.133 12.1952C88.4982 12.4693 87.9933 12.7435 87.6182 13.0176L88.4622 14.3376ZM99.6146 21.9551L103.293 16.7614H101.389L97.7102 21.9551H99.6146ZM105.934 21.9551V12.0005H104.202V21.9551H105.934ZM104.917 16.4584H101.822C101.404 16.4584 101.05 16.4079 100.762 16.3069C100.487 16.1915 100.278 16.0256 100.134 15.8092C99.9897 15.5928 99.9176 15.3187 99.9176 14.9869C99.9176 14.655 99.9897 14.3809 100.134 14.1645C100.278 13.9481 100.487 13.7894 100.762 13.6884C101.05 13.573 101.404 13.5153 101.822 13.5153H104.917V12.0005H101.822C101.144 12.0005 100.523 12.1015 99.9608 12.3034C99.4126 12.5054 98.9798 12.8228 98.6624 13.2556C98.345 13.6884 98.1863 14.2655 98.1863 14.9869C98.1863 15.6938 98.345 16.2709 98.6624 16.7181C98.9798 17.1509 99.4126 17.4683 99.9608 17.6703C100.523 17.8722 101.144 17.9732 101.822 17.9732H104.917V16.4584ZM116.758 26.716V12.0005H115.027V26.716H116.758ZM125.09 16.9778C125.09 15.8958 124.866 14.9724 124.419 14.2078C123.972 13.4287 123.373 12.83 122.623 12.4116C121.887 11.9933 121.065 11.7841 120.156 11.7841C119.333 11.7841 118.605 11.9933 117.97 12.4116C117.35 12.83 116.859 13.4287 116.499 14.2078C116.152 14.9724 115.979 15.8958 115.979 16.9778C115.979 18.0454 116.152 18.9687 116.499 19.7478C116.859 20.5268 117.35 21.1255 117.97 21.5439C118.605 21.9623 119.333 22.1715 120.156 22.1715C121.065 22.1715 121.887 21.9623 122.623 21.5439C123.373 21.1255 123.972 20.5268 124.419 19.7478C124.866 18.9687 125.09 18.0454 125.09 16.9778ZM123.337 16.9778C123.337 17.7424 123.178 18.3916 122.861 18.9254C122.558 19.4592 122.147 19.8632 121.627 20.1373C121.122 20.4114 120.56 20.5484 119.939 20.5484C119.434 20.5484 118.937 20.4114 118.446 20.1373C117.956 19.8632 117.552 19.4592 117.234 18.9254C116.917 18.3916 116.758 17.7424 116.758 16.9778C116.758 16.2131 116.917 15.5639 117.234 15.0301C117.552 14.4963 117.956 14.0924 118.446 13.8183C118.937 13.5442 119.434 13.4071 119.939 13.4071C120.56 13.4071 121.122 13.5442 121.627 13.8183C122.147 14.0924 122.558 14.4963 122.861 15.0301C123.178 15.5639 123.337 16.2131 123.337 16.9778ZM127.715 17.4106H136.22C136.234 17.324 136.241 17.2375 136.241 17.1509C136.241 17.0643 136.241 16.9778 136.241 16.8912C136.241 15.838 136.047 14.9364 135.657 14.1862C135.268 13.4215 134.719 12.83 134.012 12.4116C133.306 11.9933 132.483 11.7841 131.545 11.7841C130.694 11.7841 129.922 11.9572 129.23 12.3034C128.552 12.6497 127.996 13.133 127.564 13.7533C127.131 14.3737 126.842 15.0951 126.698 15.9174C126.669 16.0905 126.647 16.2636 126.633 16.4368C126.619 16.6099 126.611 16.7902 126.611 16.9778C126.611 17.9732 126.813 18.8677 127.217 19.6612C127.636 20.4402 128.198 21.0534 128.905 21.5006C129.627 21.9479 130.435 22.1715 131.329 22.1715C132.195 22.1715 132.916 22.0705 133.493 21.8685C134.07 21.6521 134.561 21.3564 134.965 20.9813C135.369 20.5917 135.736 20.1445 136.068 19.6395L134.662 18.7523C134.445 19.113 134.186 19.4304 133.883 19.7045C133.58 19.9642 133.233 20.1733 132.844 20.332C132.469 20.4763 132.036 20.5484 131.545 20.5484C130.896 20.5484 130.334 20.4114 129.857 20.1373C129.381 19.8632 129.013 19.4592 128.754 18.9254C128.494 18.3916 128.364 17.7424 128.364 16.9778L128.408 16.3286C128.408 15.7082 128.545 15.1744 128.819 14.7272C129.107 14.2655 129.49 13.912 129.966 13.6668C130.442 13.4215 130.968 13.2989 131.545 13.2989C132.122 13.2989 132.606 13.4143 132.995 13.6451C133.399 13.8615 133.709 14.1717 133.926 14.5757C134.157 14.9652 134.301 15.4197 134.359 15.939H127.715V17.4106ZM138.506 12.0005V21.9551H140.237V12.0005H138.506ZM143.916 12.0005L139.588 16.1122L144.349 21.9551H146.513L141.752 16.1122L146.08 12.0005H143.916ZM148.924 19.0336C148.924 18.6297 149.018 18.2834 149.206 17.9949C149.393 17.7063 149.675 17.4827 150.05 17.324C150.439 17.1653 150.923 17.086 151.5 17.086C152.134 17.086 152.704 17.1725 153.209 17.3457C153.714 17.5044 154.212 17.7568 154.702 18.1031V17.086C154.601 16.9561 154.414 16.7902 154.14 16.5882C153.866 16.3718 153.498 16.1843 153.036 16.0256C152.589 15.8525 152.048 15.7659 151.413 15.7659C150.547 15.7659 149.797 15.903 149.162 16.1771C148.528 16.4368 148.037 16.8119 147.691 17.3024C147.345 17.7929 147.172 18.3916 147.172 19.0985C147.172 19.7766 147.323 20.3465 147.626 20.8081C147.943 21.2554 148.362 21.5944 148.881 21.8252C149.4 22.0561 149.97 22.1715 150.591 22.1715C151.283 22.1715 151.911 22.0561 152.473 21.8252C153.036 21.58 153.483 21.2337 153.815 20.7865C154.161 20.3248 154.334 19.7766 154.334 19.1418L153.988 18.0598C153.988 18.6802 153.858 19.1779 153.599 19.553C153.353 19.9281 153.007 20.2022 152.56 20.3753C152.113 20.5484 151.601 20.635 151.024 20.635C150.634 20.635 150.281 20.5773 149.963 20.4619C149.646 20.332 149.393 20.1517 149.206 19.9209C149.018 19.6756 148.924 19.3799 148.924 19.0336ZM148.924 14.3376C149.083 14.2222 149.299 14.0852 149.574 13.9265C149.862 13.7533 150.201 13.6091 150.591 13.4937C150.98 13.3638 151.413 13.2989 151.889 13.2989C152.437 13.2989 152.921 13.4287 153.339 13.6884C153.772 13.9337 153.988 14.3088 153.988 14.8137V21.9551H155.719V14.8137C155.719 14.1645 155.554 13.6163 155.222 13.1691C154.904 12.7218 154.457 12.3828 153.88 12.152C153.317 11.9067 152.654 11.7841 151.889 11.7841C150.995 11.7841 150.23 11.9211 149.595 12.1952C148.96 12.4693 148.456 12.7435 148.08 13.0176L148.924 14.3376Z" fill="black"/>
</svg>
