<svg width="181" height="48" viewBox="0 0 181 48" fill="none" xmlns="http://www.w3.org/2000/svg">
<path d="M0 43H41V19.3221L35.3809 10.7351L32.9307 12.8016L25.7679 2L18.5725 12.8592L13.9988 5.95181L12.0305 8.9239L11.6793 8.63574C10.8135 7.91124 9.71096 7.51606 8.5757 7.51606C5.87231 7.51606 3.6753 9.73072 3.6753 12.4558C3.6753 14.2753 4.67171 15.9384 6.26434 16.811L6.65637 17.0251L5.52112 18.7458H0V43ZM25.7679 4.96386L32.5795 15.2468L35.0215 13.1886L39.3665 19.8161V28.9629L38.656 28.1972C37.0062 26.4106 34.6785 25.3815 32.261 25.3815H21.7006C18.6705 25.3815 16.1468 22.994 15.9426 19.9478L15.9345 19.8078L25.7679 4.96386ZM5.30876 12.4558C5.30876 10.6363 6.77072 9.16265 8.5757 9.16265C9.43327 9.16265 10.2418 9.49197 10.8544 10.093L11.0994 10.3317L7.59562 15.6173L7.28526 15.4773C6.08466 14.9586 5.30876 13.7731 5.30876 12.4558ZM1.63347 20.3924H6.39502L13.9988 8.91566L17.5924 14.3412L14.0886 19.6349C12.447 22.1131 12.3 25.151 13.6966 27.7773C15.0851 30.4036 17.6823 31.9679 20.6307 31.9679H28.749C29.6474 31.9679 30.3825 32.7088 30.3825 33.6145C30.3825 34.5201 29.6474 35.261 28.749 35.261H9.24542L7.36693 36.4137H1.63347V20.3924ZM1.63347 38.0602H7.8243L9.70279 36.9076H28.749C30.554 36.9076 32.0159 35.4339 32.0159 33.6145C32.0159 31.795 30.554 30.3213 28.749 30.3213H20.6307C18.2948 30.3213 16.2367 29.0781 15.1341 27.0034C14.5133 25.8343 14.2683 24.5418 14.4317 23.2657L14.5869 21.9978L15.1912 23.1175C16.4898 25.5297 18.989 27.0281 21.7006 27.0281H32.261C36.1813 27.0281 39.3665 30.239 39.3665 34.1908V41.3534H1.63347V38.0602Z" fill="#3D6D8F"/>
<path d="M56.0764 36.0344L58.5825 42.6144H59.7392L56.0764 33.554L52.4137 42.6144H53.5703L56.0764 36.0344ZM59.6749 43V44.4137H60.6388V41.9719H51.5141V44.4137H52.4779V43H59.6749ZM62.6426 41.265C62.6426 41.0251 62.6983 40.8195 62.8097 40.6481C62.9211 40.4768 63.0882 40.344 63.3109 40.2497C63.5422 40.1555 63.8293 40.1084 64.172 40.1084C64.549 40.1084 64.8874 40.1598 65.1873 40.2626C65.4871 40.3568 65.7827 40.5068 66.074 40.7124V40.1084C66.0141 40.0313 65.9027 39.9327 65.7399 39.8128C65.5771 39.6843 65.3586 39.5729 65.0845 39.4786C64.8189 39.3758 64.4976 39.3244 64.1206 39.3244C63.6065 39.3244 63.161 39.4058 62.784 39.5686C62.407 39.7228 62.1157 39.9456 61.9101 40.2369C61.7045 40.5282 61.6016 40.8838 61.6016 41.3036C61.6016 41.7063 61.6916 42.0447 61.8715 42.3189C62.06 42.5845 62.3085 42.7858 62.6169 42.9229C62.9254 43.06 63.2638 43.1285 63.6322 43.1285C64.0435 43.1285 64.4162 43.06 64.7503 42.9229C65.0845 42.7772 65.3501 42.5716 65.5471 42.306C65.7527 42.0318 65.8556 41.7063 65.8556 41.3293L65.6499 40.6867C65.6499 41.0551 65.5728 41.3507 65.4186 41.5735C65.2729 41.7962 65.0673 41.959 64.8017 42.0618C64.5361 42.1646 64.232 42.216 63.8892 42.216C63.6579 42.216 63.448 42.1818 63.2595 42.1132C63.071 42.0361 62.9211 41.929 62.8097 41.7919C62.6983 41.6463 62.6426 41.4706 62.6426 41.265ZM62.6426 38.4762C62.7369 38.4077 62.8654 38.3263 63.0282 38.232C63.1995 38.1292 63.4009 38.0435 63.6322 37.975C63.8635 37.8979 64.1206 37.8593 64.4033 37.8593C64.7289 37.8593 65.0159 37.9364 65.2644 38.0907C65.5214 38.2363 65.6499 38.4591 65.6499 38.7589V43H66.6781V38.7589C66.6781 38.3734 66.5795 38.0478 66.3825 37.7822C66.194 37.5166 65.9284 37.3153 65.5857 37.1782C65.2515 37.0325 64.8574 36.9597 64.4033 36.9597C63.8721 36.9597 63.418 37.0411 63.041 37.2039C62.664 37.3667 62.3642 37.5295 62.1414 37.6923L62.6426 38.4762ZM71.5662 37.0882L70.1525 39.1445L68.7389 37.0882H67.5822L69.5999 39.9541L67.4537 43H68.6103L70.1525 40.7638L71.6947 43H72.8514L70.7052 39.9541L72.7229 37.0882H71.5662ZM73.1119 40.0441C73.1119 40.6353 73.2447 41.1665 73.5103 41.6377C73.7845 42.1004 74.1529 42.4645 74.6156 42.7301C75.0783 42.9957 75.5966 43.1285 76.1706 43.1285C76.7533 43.1285 77.2716 42.9957 77.7257 42.7301C78.1884 42.4645 78.5525 42.1004 78.8181 41.6377C79.0923 41.1665 79.2293 40.6353 79.2293 40.0441C79.2293 39.4444 79.0923 38.9132 78.8181 38.4505C78.5525 37.9878 78.1884 37.6237 77.7257 37.3581C77.2716 37.0925 76.7533 36.9597 76.1706 36.9597C75.5966 36.9597 75.0783 37.0925 74.6156 37.3581C74.1529 37.6237 73.7845 37.9878 73.5103 38.4505C73.2447 38.9132 73.1119 39.4444 73.1119 40.0441ZM74.1529 40.0441C74.1529 39.6329 74.2386 39.2687 74.41 38.9517C74.5899 38.6261 74.8298 38.3734 75.1297 38.1935C75.4381 38.0135 75.7851 37.9236 76.1706 37.9236C76.5562 37.9236 76.8989 38.0135 77.1988 38.1935C77.5072 38.3734 77.7471 38.6261 77.9185 38.9517C78.0984 39.2687 78.1884 39.6329 78.1884 40.0441C78.1884 40.4554 78.0984 40.8195 77.9185 41.1365C77.7471 41.4535 77.5072 41.7063 77.1988 41.8948C76.8989 42.0747 76.5562 42.1646 76.1706 42.1646C75.7851 42.1646 75.4381 42.0747 75.1297 41.8948C74.8298 41.7063 74.5899 41.4535 74.41 41.1365C74.2386 40.8195 74.1529 40.4554 74.1529 40.0441ZM81.2458 39.9156V40.4554H82.955C83.1521 40.4554 83.3192 40.4768 83.4562 40.5196C83.6019 40.5539 83.7176 40.6096 83.8032 40.6867C83.8975 40.7638 83.966 40.8495 84.0089 40.9437C84.0603 41.038 84.086 41.1451 84.086 41.265C84.086 41.4964 83.9917 41.6934 83.8032 41.8562C83.6233 42.019 83.3406 42.1004 82.955 42.1004H81.2458V43H83.2121C83.8889 43 84.373 42.8458 84.6643 42.5373C84.9642 42.2203 85.1141 41.8391 85.1141 41.3935C85.1141 41.008 85.0199 40.7081 84.8314 40.4939C84.6429 40.2797 84.3859 40.1298 84.0603 40.0441C83.7347 39.9584 83.3663 39.9156 82.955 39.9156H81.2458ZM81.2458 40.1726H82.8265C83.1949 40.1726 83.5291 40.1212 83.8289 40.0184C84.1374 39.907 84.3859 39.7442 84.5743 39.53C84.7628 39.3073 84.8571 39.0288 84.8571 38.6947C84.8571 38.3091 84.7628 38.0007 84.5743 37.7694C84.3859 37.5295 84.1374 37.3581 83.8289 37.2553C83.5291 37.1439 83.1949 37.0882 82.8265 37.0882H81.2458V37.9878H82.8265C83.135 37.9878 83.3791 38.0607 83.5591 38.2063C83.739 38.3434 83.8289 38.5276 83.8289 38.7589C83.8289 38.8703 83.8032 38.9774 83.7518 39.0802C83.709 39.1745 83.6447 39.2602 83.5591 39.3373C83.4734 39.4144 83.3663 39.4744 83.2378 39.5172C83.1178 39.5515 82.9807 39.5686 82.8265 39.5686H81.2458V40.1726ZM80.6417 37.0882V43H81.6699V37.0882H80.6417ZM86.9278 40.0441C86.9278 39.6329 87.0135 39.2687 87.1848 38.9517C87.3648 38.6261 87.6047 38.3734 87.9045 38.1935C88.213 38.0135 88.56 37.9236 88.9455 37.9236C89.2625 37.9236 89.5581 37.975 89.8323 38.0778C90.115 38.172 90.3592 38.3006 90.5648 38.4634C90.7705 38.6261 90.9161 38.8061 91.0018 39.0031V37.718C90.7962 37.4781 90.5006 37.2938 90.115 37.1653C89.738 37.0282 89.3482 36.9597 88.9455 36.9597C88.3715 36.9597 87.8531 37.0925 87.3905 37.3581C86.9278 37.6237 86.5594 37.9878 86.2852 38.4505C86.0196 38.9132 85.8868 39.4444 85.8868 40.0441C85.8868 40.6353 86.0196 41.1665 86.2852 41.6377C86.5594 42.1004 86.9278 42.4645 87.3905 42.7301C87.8531 42.9957 88.3715 43.1285 88.9455 43.1285C89.3482 43.1285 89.738 43.0643 90.115 42.9357C90.5006 42.7987 90.7962 42.6102 91.0018 42.3703V41.0851C90.9161 41.2736 90.7705 41.4535 90.5648 41.6249C90.3592 41.7877 90.115 41.9205 89.8323 42.0233C89.5581 42.1175 89.2625 42.1646 88.9455 42.1646C88.56 42.1646 88.213 42.0747 87.9045 41.8948C87.6047 41.7063 87.3648 41.4535 87.1848 41.1365C87.0135 40.8195 86.9278 40.4554 86.9278 40.0441ZM92.5381 37.0882V43H93.5662V37.0882H92.5381ZM95.751 37.0882L93.1807 39.53L96.008 43H97.2932L94.4658 39.53L97.0362 37.0882H95.751ZM98.7253 41.265C98.7253 41.0251 98.781 40.8195 98.8923 40.6481C99.0037 40.4768 99.1708 40.344 99.3936 40.2497C99.6249 40.1555 99.9119 40.1084 100.255 40.1084C100.632 40.1084 100.97 40.1598 101.27 40.2626C101.57 40.3568 101.865 40.5068 102.157 40.7124V40.1084C102.097 40.0313 101.985 39.9327 101.823 39.8128C101.66 39.6843 101.441 39.5729 101.167 39.4786C100.901 39.3758 100.58 39.3244 100.203 39.3244C99.6891 39.3244 99.2436 39.4058 98.8666 39.5686C98.4897 39.7228 98.1983 39.9456 97.9927 40.2369C97.7871 40.5282 97.6843 40.8838 97.6843 41.3036C97.6843 41.7063 97.7742 42.0447 97.9542 42.3189C98.1427 42.5845 98.3911 42.7858 98.6996 42.9229C99.008 43.06 99.3464 43.1285 99.7148 43.1285C100.126 43.1285 100.499 43.06 100.833 42.9229C101.167 42.7772 101.433 42.5716 101.63 42.306C101.835 42.0318 101.938 41.7063 101.938 41.3293L101.733 40.6867C101.733 41.0551 101.655 41.3507 101.501 41.5735C101.356 41.7962 101.15 41.959 100.884 42.0618C100.619 42.1646 100.315 42.216 99.9719 42.216C99.7406 42.216 99.5306 42.1818 99.3421 42.1132C99.1537 42.0361 99.0037 41.929 98.8923 41.7919C98.781 41.6463 98.7253 41.4706 98.7253 41.265ZM98.7253 38.4762C98.8195 38.4077 98.948 38.3263 99.1108 38.232C99.2822 38.1292 99.4835 38.0435 99.7148 37.975C99.9462 37.8979 100.203 37.8593 100.486 37.8593C100.812 37.8593 101.099 37.9364 101.347 38.0907C101.604 38.2363 101.733 38.4591 101.733 38.7589V43H102.761V38.7589C102.761 38.3734 102.662 38.0478 102.465 37.7822C102.277 37.5166 102.011 37.3153 101.668 37.1782C101.334 37.0325 100.94 36.9597 100.486 36.9597C99.9547 36.9597 99.5007 37.0411 99.1237 37.2039C98.7467 37.3667 98.4468 37.5295 98.2241 37.6923L98.7253 38.4762ZM105.348 43L107.533 39.9156H106.402L104.217 43H105.348ZM109.101 43V37.0882H108.073V43H109.101ZM108.497 39.7357H106.659C106.411 39.7357 106.201 39.7057 106.03 39.6457C105.867 39.5772 105.743 39.4786 105.657 39.3501C105.571 39.2216 105.528 39.0588 105.528 38.8618C105.528 38.6647 105.571 38.5019 105.657 38.3734C105.743 38.2449 105.867 38.1506 106.03 38.0907C106.201 38.0221 106.411 37.9878 106.659 37.9878H108.497V37.0882H106.659C106.257 37.0882 105.888 37.1482 105.554 37.2681C105.228 37.3881 104.971 37.5766 104.783 37.8336C104.594 38.0907 104.5 38.4334 104.5 38.8618C104.5 39.2816 104.594 39.6243 104.783 39.8899C104.971 40.1469 105.228 40.3354 105.554 40.4554C105.888 40.5753 106.257 40.6353 106.659 40.6353H108.497V39.7357Z" fill="black"/>
<path d="M53.7483 16.5973H56.8429C57.4921 16.5973 58.062 16.7055 58.5525 16.9219C59.0575 17.1239 59.447 17.4341 59.7211 17.8525C60.0096 18.2709 60.1539 18.7902 60.1539 19.4106C60.1539 20.0309 60.0096 20.5503 59.7211 20.9687C59.447 21.3871 59.0575 21.7045 58.5525 21.9209C58.062 22.1229 57.4921 22.2238 56.8429 22.2238H53.7483V23.9551H56.8429C57.824 23.9551 58.6968 23.7747 59.4614 23.4141C60.2405 23.039 60.8536 22.5124 61.3009 21.8343C61.7625 21.1418 61.9933 20.3339 61.9933 19.4106C61.9933 18.4728 61.7625 17.6649 61.3009 16.9869C60.8536 16.3088 60.2405 15.7894 59.4614 15.4287C58.6968 15.0536 57.824 14.8661 56.8429 14.8661H53.7483V16.5973ZM52.7312 8.80676V23.9551H54.5707V10.538H60.8464V8.80676H52.7312ZM64.7168 19.4106H73.2215C73.236 19.324 73.2432 19.2375 73.2432 19.1509C73.2432 19.0643 73.2432 18.9778 73.2432 18.8912C73.2432 17.838 73.0484 16.9364 72.6589 16.1862C72.2693 15.4215 71.7211 14.83 71.0142 14.4116C70.3073 13.9933 69.4849 13.7841 68.5472 13.7841C67.696 13.7841 66.9242 13.9572 66.2317 14.3034C65.5536 14.6497 64.9982 15.133 64.5653 15.7533C64.1325 16.3737 63.844 17.0951 63.6997 17.9174C63.6709 18.0905 63.6492 18.2636 63.6348 18.4368C63.6204 18.6099 63.6132 18.7902 63.6132 18.9778C63.6132 19.9732 63.8151 20.8677 64.2191 21.6612C64.6375 22.4402 65.2001 23.0534 65.9071 23.5006C66.6284 23.9479 67.4363 24.1715 68.3308 24.1715C69.1964 24.1715 69.9178 24.0705 70.4948 23.8685C71.0719 23.6521 71.5624 23.3564 71.9664 22.9813C72.3703 22.5917 72.7382 22.1445 73.07 21.6395L71.6634 20.7523C71.447 21.113 71.1873 21.4304 70.8844 21.7045C70.5814 21.9642 70.2351 22.1733 69.8456 22.332C69.4705 22.4763 69.0377 22.5484 68.5472 22.5484C67.898 22.5484 67.3353 22.4114 66.8592 22.1373C66.3831 21.8632 66.0153 21.4592 65.7556 20.9254C65.4959 20.3916 65.366 19.7424 65.366 18.9778L65.4093 18.3286C65.4093 17.7082 65.5464 17.1744 65.8205 16.7272C66.109 16.2655 66.4913 15.912 66.9674 15.6668C67.4435 15.4215 67.9701 15.2989 68.5472 15.2989C69.1243 15.2989 69.6076 15.4143 69.9971 15.6451C70.4011 15.8615 70.7112 16.1717 70.9276 16.5757C71.1585 16.9652 71.3027 17.4197 71.3605 17.939H64.7168V19.4106ZM84.3371 14.0005H75.7891V20.4926C75.7891 21.1995 75.6304 21.69 75.313 21.9642C75.0101 22.2383 74.6422 22.3753 74.2094 22.3753V23.9551C74.9596 23.9551 75.5799 23.8324 76.0705 23.5872C76.561 23.3275 76.9217 22.9452 77.1525 22.4402C77.3977 21.9209 77.5204 21.2717 77.5204 20.4926V15.6235H82.6059V23.9551H84.3371V14.0005ZM88.4622 21.0336C88.4622 20.6297 88.5559 20.2834 88.7435 19.9949C88.931 19.7063 89.2124 19.4827 89.5875 19.324C89.977 19.1653 90.4603 19.086 91.0374 19.086C91.6722 19.086 92.242 19.1725 92.747 19.3457C93.2519 19.5044 93.7496 19.7568 94.2402 20.1031V19.086C94.1392 18.9561 93.9516 18.7902 93.6775 18.5882C93.4034 18.3718 93.0355 18.1843 92.5738 18.0256C92.1266 17.8525 91.5856 17.7659 90.9508 17.7659C90.0852 17.7659 89.335 17.903 88.7002 18.1771C88.0654 18.4368 87.5749 18.8119 87.2286 19.3024C86.8824 19.7929 86.7093 20.3916 86.7093 21.0985C86.7093 21.7766 86.8608 22.3465 87.1637 22.8081C87.4811 23.2554 87.8995 23.5944 88.4189 23.8252C88.9382 24.0561 89.5081 24.1715 90.1285 24.1715C90.821 24.1715 91.4485 24.0561 92.0112 23.8252C92.5738 23.58 93.0211 23.2337 93.3529 22.7865C93.6991 22.3248 93.8723 21.7766 93.8723 21.1418L93.526 20.0598C93.526 20.6802 93.3962 21.1779 93.1365 21.553C92.8912 21.9281 92.545 22.2022 92.0977 22.3753C91.6505 22.5484 91.1384 22.635 90.5613 22.635C90.1717 22.635 89.8183 22.5773 89.5009 22.4619C89.1835 22.332 88.931 22.1517 88.7435 21.9209C88.5559 21.6756 88.4622 21.3799 88.4622 21.0336ZM88.4622 16.3376C88.6208 16.2222 88.8373 16.0852 89.1114 15.9265C89.3999 15.7533 89.7389 15.6091 90.1285 15.4937C90.518 15.3638 90.9508 15.2989 91.4269 15.2989C91.9751 15.2989 92.4584 15.4287 92.8768 15.6884C93.3096 15.9337 93.526 16.3088 93.526 16.8137V23.9551H95.2573V16.8137C95.2573 16.1645 95.0913 15.6163 94.7595 15.1691C94.4421 14.7218 93.9949 14.3828 93.4178 14.152C92.8552 13.9067 92.1915 13.7841 91.4269 13.7841C90.5324 13.7841 89.7678 13.9211 89.133 14.1952C88.4982 14.4693 87.9933 14.7435 87.6182 15.0176L88.4622 16.3376ZM99.6146 23.9551L103.293 18.7614H101.389L97.7102 23.9551H99.6146ZM105.934 23.9551V14.0005H104.202V23.9551H105.934ZM104.917 18.4584H101.822C101.404 18.4584 101.05 18.4079 100.762 18.3069C100.487 18.1915 100.278 18.0256 100.134 17.8092C99.9897 17.5928 99.9176 17.3187 99.9176 16.9869C99.9176 16.655 99.9897 16.3809 100.134 16.1645C100.278 15.9481 100.487 15.7894 100.762 15.6884C101.05 15.573 101.404 15.5153 101.822 15.5153H104.917V14.0005H101.822C101.144 14.0005 100.523 14.1015 99.9608 14.3034C99.4126 14.5054 98.9798 14.8228 98.6624 15.2556C98.345 15.6884 98.1863 16.2655 98.1863 16.9869C98.1863 17.6938 98.345 18.2709 98.6624 18.7181C98.9798 19.1509 99.4126 19.4683 99.9608 19.6703C100.523 19.8722 101.144 19.9732 101.822 19.9732H104.917V18.4584ZM116.758 28.716V14.0005H115.027V28.716H116.758ZM125.09 18.9778C125.09 17.8958 124.866 16.9724 124.419 16.2078C123.972 15.4287 123.373 14.83 122.623 14.4116C121.887 13.9933 121.065 13.7841 120.156 13.7841C119.333 13.7841 118.605 13.9933 117.97 14.4116C117.35 14.83 116.859 15.4287 116.499 16.2078C116.152 16.9724 115.979 17.8958 115.979 18.9778C115.979 20.0454 116.152 20.9687 116.499 21.7478C116.859 22.5268 117.35 23.1255 117.97 23.5439C118.605 23.9623 119.333 24.1715 120.156 24.1715C121.065 24.1715 121.887 23.9623 122.623 23.5439C123.373 23.1255 123.972 22.5268 124.419 21.7478C124.866 20.9687 125.09 20.0454 125.09 18.9778ZM123.337 18.9778C123.337 19.7424 123.178 20.3916 122.861 20.9254C122.558 21.4592 122.147 21.8632 121.627 22.1373C121.122 22.4114 120.56 22.5484 119.939 22.5484C119.434 22.5484 118.937 22.4114 118.446 22.1373C117.956 21.8632 117.552 21.4592 117.234 20.9254C116.917 20.3916 116.758 19.7424 116.758 18.9778C116.758 18.2131 116.917 17.5639 117.234 17.0301C117.552 16.4963 117.956 16.0924 118.446 15.8183C118.937 15.5442 119.434 15.4071 119.939 15.4071C120.56 15.4071 121.122 15.5442 121.627 15.8183C122.147 16.0924 122.558 16.4963 122.861 17.0301C123.178 17.5639 123.337 18.2131 123.337 18.9778ZM127.715 19.4106H136.22C136.234 19.324 136.241 19.2375 136.241 19.1509C136.241 19.0643 136.241 18.9778 136.241 18.8912C136.241 17.838 136.047 16.9364 135.657 16.1862C135.268 15.4215 134.719 14.83 134.012 14.4116C133.306 13.9933 132.483 13.7841 131.545 13.7841C130.694 13.7841 129.922 13.9572 129.23 14.3034C128.552 14.6497 127.996 15.133 127.564 15.7533C127.131 16.3737 126.842 17.0951 126.698 17.9174C126.669 18.0905 126.647 18.2636 126.633 18.4368C126.619 18.6099 126.611 18.7902 126.611 18.9778C126.611 19.9732 126.813 20.8677 127.217 21.6612C127.636 22.4402 128.198 23.0534 128.905 23.5006C129.627 23.9479 130.435 24.1715 131.329 24.1715C132.195 24.1715 132.916 24.0705 133.493 23.8685C134.07 23.6521 134.561 23.3564 134.965 22.9813C135.369 22.5917 135.736 22.1445 136.068 21.6395L134.662 20.7523C134.445 21.113 134.186 21.4304 133.883 21.7045C133.58 21.9642 133.233 22.1733 132.844 22.332C132.469 22.4763 132.036 22.5484 131.545 22.5484C130.896 22.5484 130.334 22.4114 129.857 22.1373C129.381 21.8632 129.013 21.4592 128.754 20.9254C128.494 20.3916 128.364 19.7424 128.364 18.9778L128.408 18.3286C128.408 17.7082 128.545 17.1744 128.819 16.7272C129.107 16.2655 129.49 15.912 129.966 15.6668C130.442 15.4215 130.968 15.2989 131.545 15.2989C132.122 15.2989 132.606 15.4143 132.995 15.6451C133.399 15.8615 133.709 16.1717 133.926 16.5757C134.157 16.9652 134.301 17.4197 134.359 17.939H127.715V19.4106ZM138.506 14.0005V23.9551H140.237V14.0005H138.506ZM143.916 14.0005L139.588 18.1122L144.349 23.9551H146.513L141.752 18.1122L146.08 14.0005H143.916ZM148.924 21.0336C148.924 20.6297 149.018 20.2834 149.206 19.9949C149.393 19.7063 149.675 19.4827 150.05 19.324C150.439 19.1653 150.923 19.086 151.5 19.086C152.134 19.086 152.704 19.1725 153.209 19.3457C153.714 19.5044 154.212 19.7568 154.702 20.1031V19.086C154.601 18.9561 154.414 18.7902 154.14 18.5882C153.866 18.3718 153.498 18.1843 153.036 18.0256C152.589 17.8525 152.048 17.7659 151.413 17.7659C150.547 17.7659 149.797 17.903 149.162 18.1771C148.528 18.4368 148.037 18.8119 147.691 19.3024C147.345 19.7929 147.172 20.3916 147.172 21.0985C147.172 21.7766 147.323 22.3465 147.626 22.8081C147.943 23.2554 148.362 23.5944 148.881 23.8252C149.4 24.0561 149.97 24.1715 150.591 24.1715C151.283 24.1715 151.911 24.0561 152.473 23.8252C153.036 23.58 153.483 23.2337 153.815 22.7865C154.161 22.3248 154.334 21.7766 154.334 21.1418L153.988 20.0598C153.988 20.6802 153.858 21.1779 153.599 21.553C153.353 21.9281 153.007 22.2022 152.56 22.3753C152.113 22.5484 151.601 22.635 151.024 22.635C150.634 22.635 150.281 22.5773 149.963 22.4619C149.646 22.332 149.393 22.1517 149.206 21.9209C149.018 21.6756 148.924 21.3799 148.924 21.0336ZM148.924 16.3376C149.083 16.2222 149.299 16.0852 149.574 15.9265C149.862 15.7533 150.201 15.6091 150.591 15.4937C150.98 15.3638 151.413 15.2989 151.889 15.2989C152.437 15.2989 152.921 15.4287 153.339 15.6884C153.772 15.9337 153.988 16.3088 153.988 16.8137V23.9551H155.719V16.8137C155.719 16.1645 155.554 15.6163 155.222 15.1691C154.904 14.7218 154.457 14.3828 153.88 14.152C153.317 13.9067 152.654 13.7841 151.889 13.7841C150.995 13.7841 150.23 13.9211 149.595 14.1952C148.96 14.4693 148.456 14.7435 148.08 15.0176L148.924 16.3376Z" fill="black"/>
</svg>
