<svg width="24" height="24" viewBox="0 0 24 24" fill="none" xmlns="http://www.w3.org/2000/svg">
<path d="M17.3301 6.79321L17.3302 6.79362L17.6956 8.05751L17.3301 6.79321ZM17.3301 6.79321C17.3268 6.78192 17.323 6.77078 17.3186 6.75983L15.9984 2.20135L15.9984 2.20133M17.3301 6.79321L15.9984 2.20133M15.9984 2.20133C15.9754 2.12197 15.9279 2.052 15.8626 2.00207C15.7974 1.95212 15.7179 1.92497 15.6359 1.925C15.6359 1.925 15.6359 1.925 15.6359 1.925L8.36285 1.925C8.28094 1.925 8.20144 1.95216 8.13617 2.00211C8.07093 2.05203 8.02346 2.12197 8.00042 2.2013L8.00041 2.20134M15.9984 2.20133L8.00041 2.20134M8.00041 2.20134L6.30336 8.05697C6.30336 8.05698 6.30335 8.05699 6.30335 8.05701C5.8507 9.61607 6.33301 11.3401 7.48821 12.2487L7.48915 12.2494M8.00041 2.20134L7.48915 12.2494M7.48915 12.2494C8.71153 13.18 10.125 13.811 11.6213 14.0944V19.9642L9.43935 21.3617C9.43935 21.3617 9.43934 21.3617 9.43934 21.3617C9.3696 21.4064 9.31628 21.4729 9.28705 21.5509C9.25783 21.6289 9.25415 21.7144 9.27653 21.7947C9.29892 21.8749 9.34626 21.9459 9.41179 21.9966C9.47737 22.0474 9.55752 22.075 9.64015 22.075H14.359C14.4416 22.075 14.5218 22.0474 14.5873 21.9966C14.6529 21.9459 14.7002 21.8749 14.7226 21.7947C14.745 21.7144 14.7413 21.6289 14.7121 21.5509C14.6829 21.4729 14.6295 21.4064 14.5598 21.3617C14.5598 21.3617 14.5598 21.3617 14.5598 21.3617L12.3778 19.9642V14.0944C13.874 13.811 15.2873 13.1801 16.5096 12.2496L16.5096 12.2496M7.48915 12.2494L16.5096 12.2496M16.5096 12.2496L16.5106 12.2489M16.5096 12.2496L16.5106 12.2489M16.5106 12.2489C17.6665 11.3403 18.1481 9.61626 17.6956 8.05759L16.5106 12.2489ZM7.02822 8.27676L7.02823 8.27671L7.46386 6.77362C8.43452 7.46301 9.58467 7.83962 10.7669 7.85352L10.7681 7.85351C11.371 7.85094 11.97 7.75489 12.5448 7.56862L12.5448 7.56863L12.5458 7.5683C13.8748 7.11761 15.2904 7.00536 16.6706 7.24085L16.9693 8.27679L16.9694 8.27698C17.3324 9.52365 16.9395 10.9364 16.0502 11.6364C14.8551 12.5431 13.4661 13.1428 11.9994 13.3855C10.5328 13.1429 9.14383 12.5432 7.94877 11.6366C7.05925 10.9366 6.66598 9.52346 7.02822 8.27676ZM8.6452 2.69721H15.3536L16.4317 6.41712C15.0485 6.24674 13.6454 6.3879 12.3201 6.83131C10.3188 7.46692 8.73037 6.76561 7.69166 5.98993L8.6452 2.69721ZM11.9994 20.6331L13.0444 21.3024L10.9544 21.3023L11.9994 20.6331Z" fill="#333333" stroke="#333333" stroke-width="0.15"/>
<path d="M15.3084 8.25764L15.3084 8.25764C15.3865 8.22658 15.4702 8.23935 15.5381 8.28844C15.6043 8.33633 15.6487 8.41319 15.6676 8.49767L15.6676 8.49772C15.9125 9.59714 15.6526 10.8192 15.0182 11.4692L15.018 11.4694C14.9596 11.529 14.8803 11.5598 14.798 11.5451C14.717 11.5306 14.6507 11.4753 14.6088 11.4022C14.5669 11.3292 14.5497 11.2397 14.5582 11.1527C14.5667 11.066 14.6008 10.983 14.6581 10.9239L14.6583 10.9238C14.8807 10.6959 15.0444 10.3478 15.1285 9.94788C15.2124 9.54884 15.2157 9.10435 15.1232 8.68896L15.3084 8.25764ZM15.3084 8.25764C15.2707 8.27264 15.2372 8.29676 15.2093 8.32709L15.2639 8.3774M15.3084 8.25764L15.2639 8.3774M15.2639 8.3774L15.2093 8.32709C15.1814 8.35738 15.1592 8.39361 15.1432 8.43315M15.2639 8.3774L15.1432 8.43315M15.1432 8.43315C15.1272 8.47271 15.1175 8.51545 15.1141 8.559M15.1432 8.43315L15.1141 8.559M15.1141 8.559C15.1107 8.60254 15.1138 8.64664 15.1232 8.68895L15.1141 8.559ZM14.9645 11.4168C15.5765 10.7898 15.8354 9.59616 15.5944 8.51403L14.6328 11.16C14.6257 11.2329 14.6404 11.3066 14.6739 11.365C14.7073 11.4233 14.7567 11.4615 14.8112 11.4712C14.8656 11.481 14.9208 11.4614 14.9645 11.4168Z" fill="#333333" stroke="#333333" stroke-width="0.15"/>
</svg>
