<svg width="24" height="24" viewBox="0 0 24 24" fill="none" xmlns="http://www.w3.org/2000/svg">
<path d="M21.6668 16.5345C21.4732 11.8534 17.9972 8.01619 13.5092 7.30115C13.7468 6.98137 13.8964 6.5861 13.8964 6.15974C13.8964 5.10716 13.0472 4.25 12 4.25C10.9572 4.25 10.108 5.10716 10.108 6.15974C10.108 6.59054 10.2532 6.98137 10.4952 7.30115C6.0072 8.01175 2.5356 11.8534 2.3376 16.5345C1.5764 16.6678 1 17.3295 1 18.1289C1 19.0216 1.7216 19.75 2.606 19.75H21.394C22.2784 19.75 23 19.0216 23 18.1289C23 17.3295 22.4236 16.6678 21.6668 16.5345ZM10.988 6.16418C10.988 5.60014 11.4412 5.14269 12 5.14269C12.5588 5.14269 13.0164 5.60014 13.0164 6.16418C13.0164 6.72822 12.5632 7.18567 12 7.18567C11.4368 7.18567 10.988 6.72822 10.988 6.16418ZM12 8.07393C16.7036 8.07393 20.5448 11.8179 20.7736 16.5079H3.2264C3.4596 11.8179 7.2964 8.07393 12 8.07393ZM21.394 18.8617H2.606C2.2056 18.8617 1.88 18.5331 1.88 18.1289C1.88 17.7248 2.2056 17.3961 2.606 17.3961H21.394C21.7944 17.3961 22.12 17.7248 22.12 18.1289C22.12 18.5331 21.7944 18.8617 21.394 18.8617Z" fill="#333333"/>
<path d="M12.3869 10.1441C14.3138 10.1441 16.1039 10.9594 17.2999 12.3778C17.378 12.4691 17.4914 12.5167 17.6086 12.5167C17.6946 12.5167 17.7806 12.4911 17.851 12.4399C18.019 12.3156 18.0503 12.0853 17.9174 11.9281C16.5729 10.3306 14.5561 9.41667 12.3908 9.41667C12.1759 9.41667 12 9.58118 12 9.78224C12 9.9833 12.172 10.1441 12.3869 10.1441Z" fill="#333333"/>
</svg>
