<svg width="16" height="16" viewBox="0 0 16 16" fill="none" xmlns="http://www.w3.org/2000/svg">
<path d="M7.973 0.0186602C7.85641 0.0242852 7.74438 0.065535 7.65194 0.136816L0.233077 5.8289C0.230452 5.83112 0.227859 5.83334 0.225265 5.83559C0.0546714 5.96537 -0.0288597 6.17977 0.00898402 6.39074V14.2722C0.00898402 15.211 0.78142 15.9823 1.72017 15.9823H14.2804C15.2191 15.9823 15.9905 15.2109 15.9905 14.2722V6.39409C16.0261 6.20096 15.96 6.00306 15.8154 5.87015C15.8147 5.8694 15.814 5.86865 15.8132 5.86793C15.8045 5.86021 15.7956 5.85281 15.7865 5.84565C15.7803 5.83993 15.774 5.83437 15.7675 5.82893L8.34756 0.136816C8.24062 0.0543788 8.10791 0.0125039 7.973 0.0186602ZM8.00197 1.30735L14.4956 6.2904L9.93168 9.83986C9.8965 9.86761 9.86468 9.89942 9.83693 9.93461L8.36431 8.71058C8.26113 8.62549 8.13131 8.5793 7.99756 8.58014C7.86534 8.58033 7.73728 8.62646 7.63525 8.71058L6.16375 9.93349C6.13557 9.89861 6.10341 9.86721 6.06788 9.83983L1.50392 6.2904L8.00197 1.30735ZM14.849 7.46427V14.0983L10.7254 10.6715L14.849 7.46427ZM1.15167 7.4654L5.27526 10.6715L1.15167 14.0984V7.4654ZM7.99753 9.89005L13.9549 14.8408H2.04126L7.99753 9.89005Z" fill="#3D6D8F"/>
</svg>
