<svg width="16" height="16" viewBox="0 0 16 16" xmlns="http://www.w3.org/2000/svg">
<path d="M7.33398 1.33337C10.646 1.33337 13.334 4.02137 13.334 7.33337C13.334 10.6454 10.646 13.3334 7.33398 13.3334C4.02198 13.3334 1.33398 10.6454 1.33398 7.33337C1.33398 4.02137 4.02198 1.33337 7.33398 1.33337ZM7.33398 12C9.91198 12 12.0007 9.91137 12.0007 7.33337C12.0007 4.75471 9.91198 2.66671 7.33398 2.66671C4.75532 2.66671 2.66732 4.75471 2.66732 7.33337C2.66732 9.91137 4.75532 12 7.33398 12ZM12.9907 12.0474L14.8767 13.9327L13.9333 14.876L12.048 12.99L12.9907 12.0474Z"/>
</svg>
