<svg width="32" height="32" viewBox="0 0 32 32" xmlns="http://www.w3.org/2000/svg">
<path d="M16.7647 4C10.2672 4 5 9.37271 5 16.0001C5 19.4277 6.41126 22.5173 8.6707 24.704L7.21827 29.4852L12.1128 27.0236C13.5398 27.6511 15.1121 28.0001 16.7647 28.0001C23.2622 28.0001 28.5294 22.6276 28.5294 16.0002C28.5294 9.37271 23.2622 4 16.7647 4Z" fill="white"/>
<path d="M10.0813 11.068C9.47542 11.9398 10.1103 13.0013 10.1103 13.0013C10.8803 14.7448 13.0974 17.3479 14.1087 18.4766C15.1201 19.6052 17.4628 22.0913 19.096 23.03C19.096 23.03 20.0756 23.7704 20.9811 23.2328C20.9811 23.2328 22.5924 22.2702 23.5588 20.7127C23.5588 20.7127 23.8945 20.2547 23.567 19.7605C22.8571 18.6714 21.9999 17.8993 21.4519 17.4057C21.257 17.2302 20.9564 17.0104 20.6594 17.1573C20.2234 17.3726 19.8709 17.7485 19.5545 18.117C19.2956 18.4188 18.9715 18.8298 18.5503 18.8129C17.6136 18.7755 16.8719 18.1522 16.2854 17.5229C15.6868 16.88 15.0452 16.1975 14.6055 15.4254C14.3692 15.0106 14.1534 14.446 14.1788 13.934C14.2002 13.5048 14.6305 13.2126 14.9485 12.9764C15.3368 12.6882 15.7353 12.3638 15.9849 11.9401C16.1547 11.6515 15.9672 11.3265 15.8133 11.1128C15.3806 10.5118 14.7036 9.57173 13.704 8.75258C13.2508 8.37566 12.7735 8.67567 12.7735 8.67567C11.1662 9.51742 10.0813 11.068 10.0813 11.068Z" fill="#333333"/>
<path d="M16.7647 4C10.2672 4 5 9.37271 5 16.0001C5 19.4277 6.41126 22.5173 8.6707 24.704L7.21827 29.4852L12.1128 27.0236C13.5398 27.6511 15.1121 28.0001 16.7647 28.0001C23.2622 28.0001 28.5294 22.6276 28.5294 16.0002C28.5294 9.37271 23.2622 4 16.7647 4Z"/>
<path d="M10.0813 11.068C9.47542 11.9398 10.1103 13.0013 10.1103 13.0013C10.8803 14.7448 13.0974 17.3479 14.1087 18.4766C15.1201 19.6052 17.4628 22.0913 19.096 23.03C19.096 23.03 20.0756 23.7704 20.9811 23.2328C20.9811 23.2328 22.5924 22.2702 23.5588 20.7127C23.5588 20.7127 23.8945 20.2547 23.567 19.7605C22.8571 18.6714 21.9999 17.8993 21.4519 17.4057C21.257 17.2302 20.9564 17.0104 20.6594 17.1573C20.2234 17.3726 19.8709 17.7485 19.5545 18.117C19.2956 18.4188 18.9715 18.8298 18.5503 18.8129C17.6136 18.7755 16.8719 18.1522 16.2854 17.5229C15.6868 16.88 15.0452 16.1975 14.6055 15.4254C14.3692 15.0106 14.1534 14.446 14.1788 13.934C14.2002 13.5048 14.6305 13.2126 14.9485 12.9764C15.3368 12.6882 15.7353 12.3638 15.9849 11.9401C16.1547 11.6515 15.9672 11.3265 15.8133 11.1128C15.3806 10.5118 14.7036 9.57173 13.704 8.75258C13.2508 8.37566 12.7735 8.67567 12.7735 8.67567C11.1662 9.51742 10.0813 11.068 10.0813 11.068Z" fill="white"/>
</svg>
