<svg width="32" height="32" viewBox="0 0 32 32" xmlns="http://www.w3.org/2000/svg">
<path d="M16 28C22.6274 28 28 22.6274 28 16C28 9.37258 22.6274 4 16 4C9.37258 4 4 9.37258 4 16C4 22.6274 9.37258 28 16 28Z"/>
<path d="M8.97283 15.4999L20.5823 10.6058C21.1212 10.393 21.5918 10.7495 21.4172 11.6404L21.4182 11.6393L19.4415 21.8214C19.295 22.5433 18.9026 22.7188 18.3538 22.3787L15.3435 19.9531L13.8916 21.4824C13.731 21.658 13.5956 21.8061 13.2845 21.8061L13.4982 18.4566L19.0772 12.9459C19.32 12.7122 19.023 12.5806 18.7029 12.8132L11.8085 17.5592L8.83636 16.5455C8.19117 16.3217 8.17712 15.84 8.97283 15.4999Z" fill="white"/>
</svg>
