<svg width="24" height="24" viewBox="0 0 24 24" fill="none" xmlns="http://www.w3.org/2000/svg">
<path d="M13.632 13.6C15.36 13.6 16.82 13.088 17.996 12.064C21.484 9.032 21.156 2.648 21.14 2.376C21.128 2.184 20.98 2.024 20.788 2C20.6 1.976 20.416 2.096 20.356 2.28C20.252 2.612 19.084 2.888 18.052 3.128C15.896 3.632 12.94 4.32 11.54 6.7C10.624 8.256 10.528 10.352 11.236 12.92C10.66 14.256 10.308 15.676 10.1 16.98C9.988 16.596 9.856 16.208 9.696 15.832C10.16 14.112 10.088 12.704 9.468 11.648C8.512 10.016 6.516 9.552 5.06 9.212C4.528 9.088 3.724 8.9 3.632 8.744C3.576 8.56 3.392 8.44 3.2 8.464C3.008 8.488 2.86 8.644 2.848 8.84C2.836 9.024 2.616 13.324 4.98 15.38C5.784 16.08 6.784 16.432 7.964 16.432C8.3 16.432 8.66 16.396 9.024 16.336C9.564 17.704 9.752 19.192 9.808 20.244C9.796 20.844 9.808 21.32 9.82 21.604V21.644C9.836 21.784 9.924 21.9 10.04 21.96L10.044 21.964C10.08 21.98 10.116 21.992 10.156 21.996C10.168 22 10.18 22.004 10.192 22.008H10.22H10.224H10.244C10.256 22.008 10.264 22 10.272 22C10.452 21.976 10.6 21.836 10.62 21.648C10.62 21.632 10.62 21.62 10.62 21.604C10.632 21.352 10.64 20.86 10.608 20.228C10.652 18.616 10.896 15.896 11.896 13.448C12.508 13.544 13.084 13.6 13.632 13.6ZM5.512 14.772C4 13.456 3.704 10.928 3.656 9.656C3.988 9.784 4.408 9.88 4.884 9.992C6.272 10.316 8 10.716 8.78 12.052C9.18 12.736 9.292 13.632 9.12 14.72C8.644 13.956 8.02 13.284 7.2 12.8C7.012 12.688 6.764 12.752 6.652 12.94C6.54 13.128 6.604 13.376 6.792 13.488C7.628 13.984 8.236 14.732 8.68 15.572C7.384 15.736 6.316 15.468 5.512 14.772ZM12.236 7.108C13.46 5.02 16.22 4.38 18.236 3.908C19.1 3.708 19.832 3.536 20.348 3.288C20.312 5.1 19.948 9.308 17.472 11.46C16.16 12.604 14.4 13.008 12.248 12.68C12.94 11.276 13.916 10.02 15.3 9.2C15.492 9.088 15.552 8.844 15.44 8.652C15.328 8.46 15.084 8.4 14.892 8.512C13.524 9.32 12.524 10.492 11.788 11.804C11.392 9.872 11.54 8.296 12.236 7.108Z" fill="#333333"/>
</svg>
