<svg width="16" height="16" viewBox="0 0 16 16" fill="none" xmlns="http://www.w3.org/2000/svg">
<path d="M13.6226 2.32349C12.1195 0.82605 10.12 0.000854494 7.99194 0C5.86865 0 3.86597 0.824463 2.35303 2.32153C0.837402 3.82117 0.00195312 5.81409 0 7.9259V7.92834V7.92981C0.000244141 9.20801 0.33606 10.4974 0.973511 11.6744L0.0218506 16L4.39722 15.0048C5.50537 15.5632 6.74182 15.8577 7.98889 15.8582H7.99207C10.115 15.8582 12.1177 15.0336 13.6309 13.5364C15.1478 12.0355 15.9836 10.0452 15.9846 7.93201C15.9852 5.83374 15.1465 3.84192 13.6226 2.32349ZM7.99194 14.6094H7.98914C6.86938 14.6089 5.75989 14.3278 4.78076 13.7961L4.57385 13.6838L1.66443 14.3456L2.29639 11.4735L2.17456 11.2634C1.56885 10.2189 1.24878 9.0658 1.24878 7.92847C1.2511 4.24719 4.27576 1.24878 7.9917 1.24878C9.78687 1.24951 11.4736 1.94543 12.7412 3.20813C14.028 4.49036 14.7363 6.16785 14.7357 7.93164C14.7343 11.6138 11.709 14.6094 7.99194 14.6094Z" fill="#3D6D8F"/>
<path d="M5.81751 4.43311H5.46716C5.34521 4.43311 5.14722 4.47876 4.97974 4.66101C4.81213 4.84338 4.33984 5.28418 4.33984 6.18066C4.33984 7.07715 4.995 7.94336 5.0863 8.06506C5.17773 8.18665 6.35095 10.0851 8.20911 10.8154C9.75342 11.4224 10.0677 11.3016 10.4028 11.2712C10.738 11.241 11.4845 10.8306 11.6368 10.4052C11.7892 9.97974 11.7892 9.61499 11.7435 9.53882C11.6978 9.46289 11.5758 9.41736 11.3931 9.32629C11.2102 9.23511 10.3142 8.78686 10.1466 8.72595C9.979 8.66528 9.85718 8.63489 9.73523 8.81738C9.61328 8.99951 9.25427 9.4209 9.14758 9.54248C9.04102 9.66418 8.93433 9.67944 8.75147 9.58826C8.5686 9.49683 7.98584 9.30102 7.28748 8.68042C6.7439 8.19739 6.3667 7.58142 6.26001 7.39905C6.15344 7.2168 6.24866 7.11816 6.34033 7.02722C6.42249 6.94568 6.53345 6.83411 6.62488 6.72778C6.71619 6.62134 6.74219 6.54541 6.80322 6.42383C6.86414 6.30225 6.83362 6.1958 6.78796 6.10474C6.74219 6.01355 6.39136 5.11255 6.22876 4.7522H6.22888C6.09192 4.44873 5.94775 4.43848 5.81751 4.43311Z" fill="#3D6D8F"/>
</svg>
